<?xml version="1.0" encoding="UTF-8" standalone="no"?>
<svg
   width="202"
   height="200"
   viewBox="0 0 202 200"
   fill="none"
   version="1.1"
   id="svg30"
   sodipodi:docname="favicon_cyntron.svg"
   inkscape:version="1.3.2 (091e20e, 2023-11-25, custom)"
   xmlns:inkscape="http://www.inkscape.org/namespaces/inkscape"
   xmlns:sodipodi="http://sodipodi.sourceforge.net/DTD/sodipodi-0.dtd"
   xmlns="http://www.w3.org/2000/svg"
   xmlns:svg="http://www.w3.org/2000/svg">
  <defs
     id="defs30" />
  <sodipodi:namedview
     id="namedview30"
     pagecolor="#ffffff"
     bordercolor="#000000"
     borderopacity="0.25"
     inkscape:showpageshadow="2"
     inkscape:pageopacity="0.0"
     inkscape:pagecheckerboard="0"
     inkscape:deskcolor="#d1d1d1"
     inkscape:zoom="1.7330654"
     inkscape:cx="431.89368"
     inkscape:cy="192.43359"
     inkscape:window-width="3840"
     inkscape:window-height="2054"
     inkscape:window-x="-11"
     inkscape:window-y="-11"
     inkscape:window-maximized="1"
     inkscape:current-layer="svg30" />
  <rect
     x="70.102997"
     y="68.041199"
     width="63.9175"
     height="63.9175"
     rx="2"
     fill="#3c67d7"
     id="rect7" />
  <rect
     x="43.298801"
     y="41.237099"
     width="49.484501"
     height="10.3093"
     rx="4"
     fill="#3c67d7"
     id="rect8" />
  <rect
     x="138.145"
     y="41.237099"
     width="22.680401"
     height="10.3093"
     rx="4"
     fill="#3c67d7"
     id="rect9" />
  <rect
     x="111.34"
     y="41.237099"
     width="10.3093"
     height="10.3093"
     rx="4"
     fill="#3c67d7"
     id="rect10" />
  <rect
     x="177.319"
     y="53.6082"
     width="24.7423"
     height="10.3093"
     rx="4"
     fill="#3c67d7"
     id="rect11" />
  <rect
     y="53.6082"
     width="24.7423"
     height="10.3093"
     rx="4"
     fill="#3c67d7"
     id="rect12"
     x="0" />
  <rect
     x="175.258"
     y="-148.45401"
     width="24.7423"
     height="10.3093"
     rx="4"
     transform="rotate(90)"
     fill="#3c67d7"
     id="rect13" />
  <rect
     x="-5.2490236e-06"
     width="24.7423"
     height="10.3093"
     rx="4"
     transform="rotate(90)"
     fill="#3c67d7"
     id="rect14"
     y="-148.45399" />
  <rect
     x="177.319"
     y="80.412399"
     width="24.7423"
     height="10.3093"
     rx="4"
     fill="#3c67d7"
     id="rect15" />
  <rect
     y="80.412399"
     width="24.7423"
     height="10.3093"
     rx="4"
     fill="#3c67d7"
     id="rect16"
     x="0" />
  <rect
     x="175.258"
     y="-121.649"
     width="24.7423"
     height="10.3093"
     rx="4"
     transform="rotate(90)"
     fill="#3c67d7"
     id="rect17" />
  <rect
     x="2.0751954e-06"
     width="24.7423"
     height="10.3093"
     rx="4"
     transform="rotate(90)"
     fill="#3c67d7"
     id="rect18"
     y="-121.649" />
  <rect
     x="177.319"
     y="109.278"
     width="24.7423"
     height="10.3093"
     rx="4"
     fill="#3c67d7"
     id="rect19" />
  <rect
     y="109.278"
     width="24.7423"
     height="10.3093"
     rx="4"
     fill="#3c67d7"
     id="rect20"
     x="0" />
  <rect
     x="175.258"
     y="-92.783707"
     width="24.7423"
     height="10.3093"
     rx="4"
     transform="rotate(90)"
     fill="#3c67d7"
     id="rect21" />
  <rect
     x="-9.6435542e-07"
     width="24.7423"
     height="10.3093"
     rx="4"
     transform="rotate(90)"
     fill="#3c67d7"
     id="rect22"
     y="-92.783699" />
  <rect
     x="177.319"
     y="136.082"
     width="24.7423"
     height="10.3093"
     rx="4"
     fill="#3c67d7"
     id="rect23" />
  <rect
     y="136.082"
     width="24.7423"
     height="10.3093"
     rx="4"
     fill="#3c67d7"
     id="rect24"
     x="0" />
  <rect
     x="175.258"
     y="-65.979507"
     width="24.7423"
     height="10.3093"
     rx="4"
     transform="rotate(90)"
     fill="#3c67d7"
     id="rect25" />
  <rect
     x="-1.8310547e-07"
     width="24.7423"
     height="10.3093"
     rx="4"
     transform="rotate(90)"
     fill="#3c67d7"
     id="rect26"
     y="-65.9795" />
  <rect
     x="43.298801"
     y="148.45399"
     width="117.526"
     height="10.3093"
     rx="4"
     fill="#3c67d7"
     id="rect27" />
  <rect
     x="-158.763"
     y="43.298801"
     width="117.526"
     height="10.3093"
     rx="4"
     transform="rotate(-90)"
     fill="#3c67d7"
     id="rect28" />
  <rect
     x="-158.763"
     y="150.51601"
     width="117.526"
     height="10.3093"
     rx="4"
     transform="rotate(-90)"
     fill="#3c67d7"
     id="rect29" />
  <rect
     x="68.677696"
     y="66.615501"
     width="66.309303"
     height="66.309303"
     rx="2"
     fill="#3c67d7"
     id="rect30" />
</svg>
