<?xml version="1.0" encoding="UTF-8" standalone="no"?>
<svg
   width="230.45209mm"
   height="105mm"
   viewBox="0 0 871.00002 396.85051"
   fill="none"
   version="1.1"
   id="svg30"
   sodipodi:docname="logo-vector.svg"
   inkscape:version="1.3.2 (091e20e, 2023-11-25, custom)"
   xmlns:inkscape="http://www.inkscape.org/namespaces/inkscape"
   xmlns:sodipodi="http://sodipodi.sourceforge.net/DTD/sodipodi-0.dtd"
   xmlns="http://www.w3.org/2000/svg"
   xmlns:svg="http://www.w3.org/2000/svg">
  <defs
     id="defs30" />
  <sodipodi:namedview
     id="namedview30"
     pagecolor="#ffffff"
     bordercolor="#000000"
     borderopacity="0.25"
     inkscape:showpageshadow="2"
     inkscape:pageopacity="0.0"
     inkscape:pagecheckerboard="0"
     inkscape:deskcolor="#d1d1d1"
     inkscape:zoom="3.1056257"
     inkscape:cx="402.81738"
     inkscape:cy="200.1207"
     inkscape:window-width="3840"
     inkscape:window-height="2054"
     inkscape:window-x="-11"
     inkscape:window-y="-11"
     inkscape:window-maximized="1"
     inkscape:current-layer="svg30"
     inkscape:document-units="mm" />
  <path
     d="m 209.38528,387.50645 v -38.602 h -5.106 v 33.495 h -7.66 v -21.458 h -60.728 v 
-80.8507 h 7.659 v 73.9207 h 53.069 v -79.0271 h -17.872 v 67.0511 h 5.107 v 
-61.9447 h 7.659 v 68.8137 h -42.857 v -73.9201 h -17.872 v 91.0631 h 60.729 v 
21.459 z"
     fill="#3c67d7"
     id="path1" />
  <path
     d="m 296.95828,274.98435 -50.942,85.9561 h -10.578 v -80.8498 h 7.66 v 72.1578 l 
45.835,-77.2641 h -5.957 l -34.772,58.6011 v -58.6011 h -17.872 v 91.0631 h 18.602 
l 47.72,-80.4857 v 75.3787 h -7.66 v -48.996 l -5.106,8.6322 v 45.4708 h 17.872 v 
-91.0631 z"
     fill="#3c67d7"
     id="path2" />
  <path
     d="m 380.77328,274.98435 v 34.6501 h -46.261 v -29.5438 h 7.66 v 22.6138 h 5.106 v 
-27.7201 h -17.872 v 39.7564 h 56.473 v -34.6501 h 7.66 v 80.8498 h -7.66 v 
-39.2696 h -56.473 v 44.3766 h 17.872 v -32.34 h -5.106 v 27.233 h -7.66 v -34.163 
h 46.261 v 39.27 h 17.872 v -91.0631 z"
     fill="#3c67d7"
     id="path3" />
  <path
     d="m 455.27828,274.98435 v 85.9561 h -7.66 v -85.9561 h -28.875 v 17.1427 h 16.11 v 
-5.1063 h -11.003 v -6.9301 h 18.662 v 85.9568 h 17.872 v -85.9568 h 18.602 v 
6.9301 h -10.942 v 5.1063 h 16.048 v -17.1427 z"
     fill="#3c67d7"
     id="path4" />
  <path
     d="m 535.77128,274.98435 h -31.489 v 91.0631 h 17.872 v -42.675 h 14.468 c 11.854,0 
18.724,-6.7472 18.724,-18.5404 0,-11.0029 -6.87,-17.8113 -17.872,-17.8113 h -20.426 
v 24.3158 h 5.106 v -19.2095 h 15.32 c 8.206,0 12.765,4.62 12.765,12.705 0,7.2948 
-3.1,13.4346 -13.617,13.4346 h -19.574 v 42.6738 h -7.659 v -80.8498 h 26.382 c 
24.559,0 27.234,17.2643 27.234,24.7414 0,15.319 -9.422,25.4714 -24.984,25.4714 h 
-8.207 v 5.106 h 8.207 c 19.148,0 30.09,-13.1915 30.09,-30.5774 0,-15.7445 
-9.422,-29.8477 -32.34,-29.8477 z"
     fill="#3c67d7"
     id="path5" />
  <path
     d="m 636.89828,274.92365 v 5.2887 c 16.961,5.0455 24.681,22.7353 24.681,40.2428 
0,20.7903 -10.821,41.7623 -34.893,41.7623 -24.073,0 -34.894,-20.972 
-34.894,-41.7623 0,-19.9998 10.031,-40.1212 32.341,-41.641 v 12.158 c 0.79,-0.1216 
1.641,-0.1824 2.553,-0.1824 16.17,0 22.127,16.8995 22.127,29.6654 0,12.7653 
-5.896,29.7263 -22.127,29.7263 -16.231,0 -22.128,-16.961 -22.128,-29.7263 0,-9.544 
3.344,-21.5196 11.915,-26.8691 v -5.775 c -11.611,5.2279 -17.021,19.3311 
-17.021,32.6441 0,16.7783 8.511,34.8323 27.234,34.8323 18.723,0 27.233,-18.054 
27.233,-34.8323 0,-15.9269 -7.781,-33.0696 -24.68,-34.6502 v -12.0363 c 
-0.851,-0.0608 -1.702,-0.1216 -2.553,-0.1216 -25.532,0 -40,21.2764 -40,46.8081 
0,25.5313 14.468,46.8683 40,46.8683 25.531,0 39.999,-21.337 39.999,-46.8683 
0,-21.8843 -10.638,-40.6075 -29.787,-45.5315 z"
     fill="#3c67d7"
     id="path6" />
  <path
     d="m 741.21128,274.98435 v 34.6501 h -46.261 v -29.5438 h 7.659 v 22.6138 h 5.107 v 
-27.7201 h -17.873 v 39.7564 h 56.474 v -34.6501 h 7.659 v 80.8498 h -7.659 v 
-39.2696 h -56.474 v 44.3766 h 17.873 v -32.34 h -5.107 v 27.233 h -7.659 v -34.163 
h 46.261 v 39.27 h 17.872 v -91.0631 z"
     fill="#3c67d7"
     id="path7" />
  <rect
     x="406.58914"
     y="97.664856"
     width="63.9175"
     height="63.9175"
     rx="2"
     fill="#3c67d7"
     id="rect7" />
  <rect
     x="379.78494"
     y="70.860756"
     width="49.484501"
     height="10.3093"
     rx="4"
     fill="#3c67d7"
     id="rect8" />
  <rect
     x="474.63113"
     y="70.860756"
     width="22.680401"
     height="10.3093"
     rx="4"
     fill="#3c67d7"
     id="rect9" />
  <rect
     x="447.82614"
     y="70.860756"
     width="10.3093"
     height="10.3093"
     rx="4"
     fill="#3c67d7"
     id="rect10" />
  <rect
     x="513.80511"
     y="83.231857"
     width="24.7423"
     height="10.3093"
     rx="4"
     fill="#3c67d7"
     id="rect11" />
  <rect
     y="83.231857"
     width="24.7423"
     height="10.3093"
     rx="4"
     fill="#3c67d7"
     id="rect12"
     x="336.48615" />
  <rect
     x="204.88165"
     y="-484.94016"
     width="24.7423"
     height="10.3093"
     rx="4"
     transform="rotate(90)"
     fill="#3c67d7"
     id="rect13" />
  <rect
     x="29.623655"
     width="24.7423"
     height="10.3093"
     rx="4"
     transform="rotate(90)"
     fill="#3c67d7"
     id="rect14"
     y="-484.94012" />
  <rect
     x="513.80511"
     y="110.03606"
     width="24.7423"
     height="10.3093"
     rx="4"
     fill="#3c67d7"
     id="rect15" />
  <rect
     y="110.03606"
     width="24.7423"
     height="10.3093"
     rx="4"
     fill="#3c67d7"
     id="rect16"
     x="336.48615" />
  <rect
     x="204.88165"
     y="-458.13513"
     width="24.7423"
     height="10.3093"
     rx="4"
     transform="rotate(90)"
     fill="#3c67d7"
     id="rect17" />
  <rect
     x="29.623661"
     width="24.7423"
     height="10.3093"
     rx="4"
     transform="rotate(90)"
     fill="#3c67d7"
     id="rect18"
     y="-458.13513" />
  <rect
     x="513.80511"
     y="138.90166"
     width="24.7423"
     height="10.3093"
     rx="4"
     fill="#3c67d7"
     id="rect19" />
  <rect
     y="138.90166"
     width="24.7423"
     height="10.3093"
     rx="4"
     fill="#3c67d7"
     id="rect20"
     x="336.48615" />
  <rect
     x="204.88165"
     y="-429.26984"
     width="24.7423"
     height="10.3093"
     rx="4"
     transform="rotate(90)"
     fill="#3c67d7"
     id="rect21" />
  <rect
     x="29.623659"
     width="24.7423"
     height="10.3093"
     rx="4"
     transform="rotate(90)"
     fill="#3c67d7"
     id="rect22"
     y="-429.26984" />
  <rect
     x="513.80511"
     y="165.70566"
     width="24.7423"
     height="10.3093"
     rx="4"
     fill="#3c67d7"
     id="rect23" />
  <rect
     y="165.70566"
     width="24.7423"
     height="10.3093"
     rx="4"
     fill="#3c67d7"
     id="rect24"
     x="336.48615" />
  <rect
     x="204.88165"
     y="-402.46564"
     width="24.7423"
     height="10.3093"
     rx="4"
     transform="rotate(90)"
     fill="#3c67d7"
     id="rect25" />
  <rect
     x="29.623659"
     width="24.7423"
     height="10.3093"
     rx="4"
     transform="rotate(90)"
     fill="#3c67d7"
     id="rect26"
     y="-402.46564" />
  <rect
     x="379.78494"
     y="178.07765"
     width="117.526"
     height="10.3093"
     rx="4"
     fill="#3c67d7"
     id="rect27" />
  <rect
     x="-188.38666"
     y="379.78494"
     width="117.526"
     height="10.3093"
     rx="4"
     transform="rotate(-90)"
     fill="#3c67d7"
     id="rect28" />
  <rect
     x="-188.38666"
     y="487.00214"
     width="117.526"
     height="10.3093"
     rx="4"
     transform="rotate(-90)"
     fill="#3c67d7"
     id="rect29" />
  <rect
     x="405.16382"
     y="96.239159"
     width="66.309303"
     height="66.309303"
     rx="2"
     fill="#3c67d7"
     id="rect30" />
</svg>

