<svg width="871" height="200" viewBox="0 0 871 200" fill="none" xmlns="http://www.w3.org/2000/svg">
<path d="M320.796 165.007V126.405H315.69V159.9H308.03V138.442H247.302V57.5913H254.961V131.512H308.03V52.4849H290.158V119.536H295.265V57.5913H302.924V126.405H260.067V52.4849H242.195V143.548H302.924V165.007H320.796Z" fill="#3C67D7"/>
<path d="M408.369 52.4849L357.427 138.441H346.849V57.5912H354.509V129.749L400.344 52.4849H394.387L359.615 111.086V52.4849H341.743V143.548H360.345L408.065 63.0623V138.441H400.405V89.445L395.299 98.0772V143.548H413.171V52.4849H408.369Z" fill="#3C67D7"/>
<path d="M492.184 52.4849V87.135H445.923V57.5912H453.583V80.205H458.689V52.4849H440.817V92.2413H497.29V57.5912H504.95V138.441H497.29V99.1714H440.817V143.548H458.689V111.208H453.583V138.441H445.923V104.278H492.184V143.548H510.056V52.4849H492.184Z" fill="#3C67D7"/>
<path d="M566.689 52.4849V138.441H559.029V52.4849H530.154V69.6276H546.264V64.5213H535.261V57.5912H553.923V143.548H571.795V57.5912H590.397V64.5213H579.455V69.6276H595.503V52.4849H566.689Z" fill="#3C67D7"/>
<path d="M647.182 52.4849H615.693V143.548H633.565V100.873H648.033C659.887 100.873 666.757 94.1258 666.757 82.3326C666.757 71.3297 659.887 64.5213 648.885 64.5213H628.459V88.8371H633.565V69.6276H648.885C657.091 69.6276 661.65 74.2476 661.65 82.3326C661.65 89.6274 658.55 95.7672 648.033 95.7672H628.459V138.441H620.8V57.5912H647.182C671.741 57.5912 674.416 74.8555 674.416 82.3326C674.416 97.6516 664.994 107.804 649.432 107.804H641.225V112.91H649.432C668.58 112.91 679.522 99.7185 679.522 82.3326C679.522 66.5881 670.1 52.4849 647.182 52.4849Z" fill="#3C67D7"/>
<path d="M748.309 52.4242V57.7129C765.27 62.7584 772.99 80.4482 772.99 97.9557C772.99 118.746 762.169 139.718 738.097 139.718C714.024 139.718 703.203 118.746 703.203 97.9557C703.203 77.9559 713.234 57.8345 735.544 56.3147V68.4727C736.334 68.3511 737.185 68.2903 738.097 68.2903C754.267 68.2903 760.224 85.1898 760.224 97.9557C760.224 110.721 754.328 127.682 738.097 127.682C721.866 127.682 715.969 110.721 715.969 97.9557C715.969 88.4117 719.313 76.4361 727.884 71.0866V65.3116C716.273 70.5395 710.863 84.6427 710.863 97.9557C710.863 114.734 719.374 132.788 738.097 132.788C756.82 132.788 765.33 114.734 765.33 97.9557C765.33 82.0288 757.549 64.8861 740.65 63.3055V51.2692C739.799 51.2084 738.948 51.1476 738.097 51.1476C712.565 51.1476 698.097 72.424 698.097 97.9557C698.097 123.487 712.565 144.824 738.097 144.824C763.628 144.824 778.096 123.487 778.096 97.9557C778.096 76.0714 767.458 57.3482 748.309 52.4242Z" fill="#3C67D7"/>
<path d="M852.622 52.4849V87.135H806.361V57.5912H814.02V80.205H819.127V52.4849H801.254V92.2413H857.728V57.5912H865.387V138.441H857.728V99.1714H801.254V143.548H819.127V111.208H814.02V138.441H806.361V104.278H852.622V143.548H870.494V52.4849H852.622Z" fill="#3C67D7"/>
<rect x="70.103" y="68.0412" width="63.9175" height="63.9175" rx="2" fill="#3C67D7"/>
<rect x="43.2988" y="41.2371" width="49.4845" height="10.3093" rx="4" fill="#3C67D7"/>
<rect x="138.145" y="41.2371" width="22.6804" height="10.3093" rx="4" fill="#3C67D7"/>
<rect x="111.34" y="41.2371" width="10.3093" height="10.3093" rx="4" fill="#3C67D7"/>
<rect x="177.319" y="53.6082" width="24.7423" height="10.3093" rx="4" fill="#3C67D7"/>
<rect y="53.6082" width="24.7423" height="10.3093" rx="4" fill="#3C67D7"/>
<rect x="148.454" y="175.258" width="24.7423" height="10.3093" rx="4" transform="rotate(90 148.454 175.258)" fill="#3C67D7"/>
<rect x="148.454" width="24.7423" height="10.3093" rx="4" transform="rotate(90 148.454 0)" fill="#3C67D7"/>
<rect x="177.319" y="80.4124" width="24.7423" height="10.3093" rx="4" fill="#3C67D7"/>
<rect y="80.4124" width="24.7423" height="10.3093" rx="4" fill="#3C67D7"/>
<rect x="121.649" y="175.258" width="24.7423" height="10.3093" rx="4" transform="rotate(90 121.649 175.258)" fill="#3C67D7"/>
<rect x="121.649" width="24.7423" height="10.3093" rx="4" transform="rotate(90 121.649 0)" fill="#3C67D7"/>
<rect x="177.319" y="109.278" width="24.7423" height="10.3093" rx="4" fill="#3C67D7"/>
<rect y="109.278" width="24.7423" height="10.3093" rx="4" fill="#3C67D7"/>
<rect x="92.7837" y="175.258" width="24.7423" height="10.3093" rx="4" transform="rotate(90 92.7837 175.258)" fill="#3C67D7"/>
<rect x="92.7837" width="24.7423" height="10.3093" rx="4" transform="rotate(90 92.7837 0)" fill="#3C67D7"/>
<rect x="177.319" y="136.082" width="24.7423" height="10.3093" rx="4" fill="#3C67D7"/>
<rect y="136.082" width="24.7423" height="10.3093" rx="4" fill="#3C67D7"/>
<rect x="65.9795" y="175.258" width="24.7423" height="10.3093" rx="4" transform="rotate(90 65.9795 175.258)" fill="#3C67D7"/>
<rect x="65.9795" width="24.7423" height="10.3093" rx="4" transform="rotate(90 65.9795 0)" fill="#3C67D7"/>
<rect x="43.2988" y="148.454" width="117.526" height="10.3093" rx="4" fill="#3C67D7"/>
<rect x="43.2988" y="158.763" width="117.526" height="10.3093" rx="4" transform="rotate(-90 43.2988 158.763)" fill="#3C67D7"/>
<rect x="150.516" y="158.763" width="117.526" height="10.3093" rx="4" transform="rotate(-90 150.516 158.763)" fill="#3C67D7"/>
<rect x="68.6777" y="66.6155" width="66.3093" height="66.3093" rx="2" fill="#3C67D7"/>
</svg>
