<svg width="28" height="26" viewBox="0 0 202 186" fill="none" xmlns="http://www.w3.org/2000/svg">
<rect x="70.103" y="68.0412" width="63.9175" height="63.9175" rx="2" fill="#3C67D7"/>
<rect x="43.2988" y="41.2371" width="49.4845" height="10.3093" rx="4" fill="#3C67D7"/>
<rect x="138.145" y="41.2371" width="22.6804" height="10.3093" rx="4" fill="#3C67D7"/>
<rect x="111.34" y="41.2371" width="10.3093" height="10.3093" rx="4" fill="#3C67D7"/>
<rect x="177.319" y="53.6082" width="24.7423" height="10.3093" rx="4" fill="#3C67D7"/>
<rect y="53.6082" width="24.7423" height="10.3093" rx="4" fill="#3C67D7"/>
<rect x="148.454" y="175.258" width="24.7423" height="10.3093" rx="4" transform="rotate(90 148.454 175.258)" fill="#3C67D7"/>
<rect x="148.454" width="24.7423" height="10.3093" rx="4" transform="rotate(90 148.454 0)" fill="#3C67D7"/>
<rect x="177.319" y="80.4124" width="24.7423" height="10.3093" rx="4" fill="#3C67D7"/>
<rect y="80.4124" width="24.7423" height="10.3093" rx="4" fill="#3C67D7"/>
<rect x="121.649" y="175.258" width="24.7423" height="10.3093" rx="4" transform="rotate(90 121.649 175.258)" fill="#3C67D7"/>
<rect x="121.649" width="24.7423" height="10.3093" rx="4" transform="rotate(90 121.649 0)" fill="#3C67D7"/>
<rect x="177.319" y="109.278" width="24.7423" height="10.3093" rx="4" fill="#3C67D7"/>
<rect y="109.278" width="24.7423" height="10.3093" rx="4" fill="#3C67D7"/>
<rect x="92.7837" y="175.258" width="24.7423" height="10.3093" rx="4" transform="rotate(90 92.7837 175.258)" fill="#3C67D7"/>
<rect x="92.7837" width="24.7423" height="10.3093" rx="4" transform="rotate(90 92.7837 0)" fill="#3C67D7"/>
<rect x="177.319" y="136.082" width="24.7423" height="10.3093" rx="4" fill="#3C67D7"/>
<rect y="136.082" width="24.7423" height="10.3093" rx="4" fill="#3C67D7"/>
<rect x="65.9795" y="175.258" width="24.7423" height="10.3093" rx="4" transform="rotate(90 65.9795 175.258)" fill="#3C67D7"/>
<rect x="65.9795" width="24.7423" height="10.3093" rx="4" transform="rotate(90 65.9795 0)" fill="#3C67D7"/>
<rect x="43.2988" y="148.454" width="117.526" height="10.3093" rx="4" fill="#3C67D7"/>
<rect x="43.2988" y="158.763" width="117.526" height="10.3093" rx="4" transform="rotate(-90 43.2988 158.763)" fill="#3C67D7"/>
<rect x="150.516" y="158.763" width="117.526" height="10.3093" rx="4" transform="rotate(-90 150.516 158.763)" fill="#3C67D7"/>
<rect x="68.6777" y="66.6155" width="66.3093" height="66.3093" rx="2" fill="#3C67D7"/>
</svg>
